# xmcd CD database file
#
# Track frame offsets:
#	150
#	18342
#	35035
#	56190
#	71340
#	86935
#	109287
#	128490
#	144770
#	156395
#	174250
#	199367
#	213480
#	232217
#	254837
#
# Disc length: 3489 seconds
#
# Revision: 0
# Processed by: cddbd v1.5.1PL0 Copyright (c) Steve Scherf et al.
# Submitted via: CDex 1.51
#
DISCID=e40d9f0f
DTITLE=Lezlie Anders - With Love, Lezlie
DYEAR=1900
DGENRE=Jazz
TTITLE0=Here's To Life
TTITLE1=Fever
TTITLE2=Cry Me A River
TTITLE3=Guess Who I Saw Today?
TTITLE4=Our Love Is Here To Stay
TTITLE5=Lover Man
TTITLE6=The Very Thought Of You
TTITLE7=Miracles
TTITLE8=On The Southside Of Chicago
TTITLE9=Perfect
TTITLE10=More Than You Know
TTITLE11=Fine And Mellow
TTITLE12=At The Same Time
TTITLE13=What A Difference A Day Make
TTITLE14=My Buddy
EXTD=
EXTT0=
EXTT1=
EXTT2=
EXTT3=
EXTT4=
EXTT5=
EXTT6=
EXTT7=
EXTT8=
EXTT9=
EXTT10=
EXTT11=
EXTT12=
EXTT13=
EXTT14=
PLAYORDER=
